<svg width="128" height="128" viewBox="0 0 128 128" fill="none" xmlns="http://www.w3.org/2000/svg">
<rect width="128" height="128" rx="16" fill="#232834"/>
<path d="M72.2105 84.6646C72.9344 84.6646 73.6019 85.0558 73.9555 85.6875L81.3439 98.8825C82.115 100.26 81.0617 101.946 79.4859 101.856L72.8514 101.481L27.4943 102.113C25.9481 102.135 24.9634 100.469 25.7281 99.1245L54.1296 49.2024C54.1418 49.1837 54.1524 49.164 54.1611 49.1434L63.1324 33.6245L71.5484 19.0644C72.3272 17.7172 74.2785 17.7363 75.0308 19.0985L83.0522 33.6245L83.1468 33.7969C83.4844 34.4098 83.4725 35.1556 83.1155 35.7574L73.0024 52.8028C73.0005 52.806 72.9955 52.8046 72.9955 52.8009C72.9955 52.7971 72.9905 52.7957 72.9886 52.799L68.2531 60.828C64.1622 67.7691 60.069 74.709 55.9735 81.6478C55.1865 82.9811 56.1477 84.6646 57.6959 84.6646H72.2105Z" fill="white"/>
<path d="M102.544 68.5273C103.309 69.8606 102.346 71.5227 100.809 71.5227H84.9529C84.2383 71.5227 83.578 71.1414 83.2207 70.5225L76.6651 59.1646C76.3006 58.5332 76.3086 57.7535 76.686 57.1296C79.461 52.5427 82.236 47.9566 85.0109 43.3714C85.8075 42.0552 87.7298 42.0938 88.473 43.4408L96.5659 58.1092L102.544 68.5273Z" fill="white"/>
</svg>
